<svg width="1000" height="1000" viewBox="-50 -50 100 100" xmlns="http://www.w3.org/2000/svg">
  <path stroke="green" fill-opacity="0" stroke-width="0.2" d= "M -1.5 -1.5 L 51.5 -1.5 L 51.5 1.5 L -1.5 1.5 L -1.5 -1.5"/>
  <path stroke="green" fill-opacity="0" stroke-width="0.2" d= "M -1.5 -1.5 L 21.5 -1.5 L 21.5 1.5 L -1.5 1.5 L -1.5 -1.5"/>
  <path stroke="red" fill-opacity="0" stroke-width="0.2" d= "M 19 -1 L 21 -1 L 21 1 L 19 1 L 19 -1"/>
  <path stroke="green" fill-opacity="0" stroke-width="0.2" d= "M -1.5 -1.5 L 11.5 -1.5 L 11.5 1.5 L -1.5 1.5 L -1.5 -1.5"/>
  <path stroke="red" fill-opacity="0" stroke-width="0.2" d= "M -1 -1 L 1 -1 L 1 1 L -1 1 L -1 -1"/>
  <path stroke="green" fill-opacity="0" stroke-width="0.2" d= "M -1.5 -1.5 L 11.5 -1.5 L 11.5 1.5 L -1.5 1.5 L -1.5 -1.5"/>
  <path stroke="red" fill-opacity="0" stroke-width="0.2" d= "M 9 -1 L 11 -1 L 11 1 L 9 1 L 9 -1"/>
  <path stroke="red" fill-opacity="0" stroke-width="0.2" d= "M -1 -1 L 1 -1 L 1 1 L -1 1 L -1 -1"/>
  <path stroke="green" fill-opacity="0" stroke-width="0.2" d= "M 28.5 -1.5 L 51.5 -1.5 L 51.5 1.5 L 28.5 1.5 L 28.5 -1.5"/>
  <path stroke="green" fill-opacity="0" stroke-width="0.2" d= "M 28.5 -1.5 L 51.5 -1.5 L 51.5 1.5 L 28.5 1.5 L 28.5 -1.5"/>
  <path stroke="red" fill-opacity="0" stroke-width="0.2" d= "M 29 -1 L 31 -1 L 31 1 L 29 1 L 29 -1"/>
  <path stroke="red" fill-opacity="0" stroke-width="0.2" d= "M 49 -1 L 51 -1 L 51 1 L 49 1 L 49 -1"/>
  <path stroke="red" fill-opacity="0" stroke-width="0.2" d= "M 39 -1 L 41 -1 L 41 1 L 39 1 L 39 -1"/>
</svg>
